<?xml version="1.0" encoding="utf-8"?>
<!-- Generator: Adobe Illustrator 25.1.0, SVG Export Plug-In . SVG Version: 6.00 Build 0)  -->
<svg version="1.1" id="Layer_1" xmlns="http://www.w3.org/2000/svg" xmlns:xlink="http://www.w3.org/1999/xlink" x="0px" y="0px"
	 viewBox="0 0 512.9 512.9" style="enable-background:new 0 0 512.9 512.9;" xml:space="preserve">
<style type="text/css">
	.st0{fill:#2AA537;}
</style>
<g>
	<g id="XMLID_1_">
		<g>
			<path class="st0" d="M510.3,251.3c1.7,1.7,2.6,3.4,2.6,6c0,2.6-0.8,4.3-2.6,6c-27.3,25.6-65.7,44.4-106.7,44.4
				c-13.1,0-26.5-1.9-39.8-6.1c47.8,24.3,75.6,70.8,75.6,129.8c0,5.1-3.4,8.5-8.5,8.5c-51.5,0-109.1-26.2-134.5-83.4
				c21.6,53.6,9,109.9-35.3,154.3c-0.9,0.9-2.6,1.7-5.1,1.7s-4.3-0.9-6-2.6c-34.4-34.4-56.7-89.2-39.8-144.2
				c-24.4,47-70.7,74.3-129.1,74.3c-5.1,0-8.5-3.4-8.5-8.5c0-48.1,22.9-101.5,72.6-129.1c-13.3,4.1-26.7,6.2-40.1,6.2
				c-36.7,0-72.5-15.4-102.4-45.2c-3.4-3.4-3.4-8.5,0-11.9c34.8-34.8,90.4-57.2,146.1-39.3c-48.1-24.7-76.1-71.4-76.1-130.6
				c0-5.1,3.4-8.5,8.5-8.5c48.7,0,102.7,23.4,130,74.3C194.8,96.7,208.4,44.6,250,3c3.4-3.4,8.5-3.4,11.9,0
				c34.4,34.4,56.7,89.2,39.8,144.2c24.5-47,70.7-74.3,129.1-74.3c5.1,0,8.5,3.4,8.5,8.5c0,51.5-26.2,109.1-83.5,134.5
				C409.6,194.4,465.9,206.9,510.3,251.3z M490.7,256.4c-41.7-37.4-94.4-44.3-142.9-19.9c0.8,3.7,1.4,7.5,1.7,11.3H384
				c5.1,0,8.5,3.4,8.5,8.5c0,5.1-3.4,8.5-8.5,8.5h-34.5c-0.3,3.9-0.9,7.6-1.7,11.3C399.7,304.1,454.9,287.1,490.7,256.4z
				 M334.7,205.1c57-17.1,84.3-68.3,86.8-115.1c-55.4,3.4-98,34.9-114.3,87.6c3.1,2,6.1,4.2,8.9,6.6l27.7-27.7
				c3.4-3.4,8.5-3.4,11.9,0c3.4,3.4,3.4,8.5,0,11.9l-27.7,27.7C330.5,199.1,332.7,202,334.7,205.1z M422.4,422
				c-3.4-56.1-34.7-97.8-87.2-115c-2.2,3.4-4.5,6.6-7.1,9.6l27.7,27.7c3.4,3.4,3.4,8.5,0,12c-1.7,1.7-3.4,2.6-6,2.6s-4.3-0.9-6-2.6
				l-27.7-27.7c-2.8,2.4-5.8,4.6-8.9,6.6C324.4,392.2,375.5,419.4,422.4,422z M343.3,221.7c2.6-1.3,5.2-2.6,7.9-3.7
				c-2.7,1.1-5.4,2.1-8.2,3C343.1,221.2,343.2,221.5,343.3,221.7z M332.8,256.4c0-13-3.2-25.2-8.8-35.9c-0.2-0.3-0.4-0.5-0.6-0.8
				c-4.9-9.2-11.6-17.1-19.8-23.7c-7.3-5.8-15.7-10.2-24.8-13c-0.5,0-1,0-1.5,0c-14.5-4.3-29-4.3-42.7,0c-0.7,0.2-1.4,0.2-2.2,0.2
				c-4.1,1.3-8.1,3-11.9,4.9c-0.4,0.3-0.8,0.6-1.3,0.9c-9.2,4.9-17.1,11.6-23.7,19.8c-10.3,13.1-16.4,29.6-16.4,47.7
				c0,1.2,0,2.4,0.1,3.5c0,0.3,0,0.6,0,0.9c0.1,1,0.1,1.9,0.2,2.9c0.4,4.7,1.4,9.6,3.1,14c0.2,0.7,0.2,1.4,0.2,2.2
				c1.3,4.1,3,8.1,4.9,11.9c0.3,0.4,0.6,0.8,0.8,1.3c4.9,9.2,11.6,17.1,19.8,23.7c13.1,10.3,29.6,16.4,47.7,16.4
				c12.8,0,24.8-3.1,35.4-8.5c0.4-0.3,0.8-0.6,1.3-0.8c9.2-4.9,17.1-11.6,23.7-19.8C326.7,291,332.8,274.5,332.8,256.4z
				 M294.4,351.6c-1.1-2.7-2.1-5.4-3-8.2c-0.3,0.1-0.5,0.2-0.7,0.3C292,346.3,293.3,349,294.4,351.6z M275.9,164.6
				c27.8-51.9,10.8-107.2-19.9-142.9c-37.4,41.7-45.2,94.4-19.9,142.9c3.7-0.8,7.5-1.4,11.3-1.7v-34.5c0-5.1,3.4-8.5,8.5-8.5
				s8.5,3.4,8.5,8.5v34.5C268.4,163.3,272.2,163.9,275.9,164.6z M256,491.1c37.4-41.7,45.2-94.4,19.9-142.9
				c-3.7,0.8-7.5,1.4-11.3,1.7v34.5c0,5.1-3.4,8.5-8.5,8.5s-8.5-3.4-8.5-8.5v-34.5c-3.9-0.3-7.6-0.9-11.3-1.7
				C208.3,400.1,225.4,455.4,256,491.1z M205.4,335.6c-3.4-2.1-6.6-4.5-9.6-7l-27.7,27.7c-1.7,1.7-3.4,2.6-6,2.6s-4.3-0.9-6-2.6
				c-3.4-3.4-3.4-8.5,0-12l27.7-27.7c-2.4-2.8-4.6-5.8-6.6-8.9c-57,17.1-84.2,68.3-86.8,115.1C146.5,419.4,188.2,388.1,205.4,335.6z
				 M195.8,184.3c2.8-2.4,5.8-4.6,8.9-6.6c-17.1-57-68.3-84.2-115.1-87.6c3.4,56.2,34.9,98,87.7,115.1c2-3.1,4.2-6.1,6.6-8.9
				l-27.7-27.7c-3.4-3.4-3.4-8.5,0-11.9s8.5-3.4,11.9,0L195.8,184.3z M162.5,247.9c0.3-3.9,0.9-7.6,1.7-11.3
				c-52.8-27.8-108-11.6-142.9,19.9c41.7,37.4,94.4,45.2,142.9,19.9c-0.8-3.7-1.4-7.5-1.7-11.3H128c-5.1,0-8.5-3.4-8.5-8.5
				c0-5.1,3.4-8.5,8.5-8.5H162.5z"/>
			<path class="st0" d="M256,196.7c5.1,0,8.5,3.4,8.5,8.5c0,5.1-3.4,8.5-8.5,8.5c-23.9,0-42.7,18.8-42.7,42.7c0,5.1-3.4,8.5-8.5,8.5
				c-5.1,0-8.5-3.4-8.5-8.5C196.3,223.1,222.7,196.7,256,196.7z"/>
		</g>
		<g>
		</g>
	</g>
</g>
</svg>
