<?xml version="1.0" encoding="utf-8"?>
<!-- Generator: Adobe Illustrator 25.1.0, SVG Export Plug-In . SVG Version: 6.00 Build 0)  -->
<svg version="1.1"
	 id="svg3314" sodipodi:docname="Leaf icon 15.svg" xmlns:cc="http://creativecommons.org/ns#" xmlns:dc="http://purl.org/dc/elements/1.1/" xmlns:inkscape="http://www.inkscape.org/namespaces/inkscape" xmlns:rdf="http://www.w3.org/1999/02/22-rdf-syntax-ns#" xmlns:sodipodi="http://sodipodi.sourceforge.net/DTD/sodipodi-0.dtd" xmlns:svg="http://www.w3.org/2000/svg"
	 xmlns="http://www.w3.org/2000/svg" xmlns:xlink="http://www.w3.org/1999/xlink" x="0px" y="0px" viewBox="0 0 48 48.8"
	 style="enable-background:new 0 0 48 48.8;" xml:space="preserve">
<style type="text/css">
	.st0{fill:#8A4B14;}
</style>
<defs>
	
		<inkscape:perspective  id="perspective3322" inkscape:persp3d-origin="372.04724 : 350.78739 : 1" inkscape:vp_x="0 : 526.18109 : 1" inkscape:vp_y="0 : 1000 : 0" inkscape:vp_z="744.09448 : 526.18109 : 1" sodipodi:type="inkscape:persp3d">
		</inkscape:perspective>
</defs>
<sodipodi:namedview  bordercolor="#666666" borderopacity="1.0" gridtolerance="10000" guidetolerance="10" id="base" inkscape:current-layer="layer1" inkscape:cx="375" inkscape:cy="520" inkscape:document-units="px" inkscape:pageopacity="0.0" inkscape:pageshadow="2" inkscape:window-height="718" inkscape:window-width="640" inkscape:window-x="632" inkscape:window-y="249" inkscape:zoom="0.35" objecttolerance="10" pagecolor="#ffffff" showgrid="false">
	</sodipodi:namedview>
<g id="layer1" transform="translate(-627.42315,-376.52517)" inkscape:groupmode="layer" inkscape:label="Layer 1">
	<g id="g132" transform="matrix(1.2500001,0,0,1.2500001,626.95511,376.52517)">
		<path id="path134" class="st0" d="M10,39.1c-2.9-0.2-4.4-1.2-5.2-2.4c0.1-2.8,0.6-6.3,1.8-9.5c0.7-1.8,1.7-3.5,2.9-4.7
			c1.3-1.4,2.5-2.5,3.8-3.5c2.4-1.8,4.5-2.6,5.2-2.8c0.7-0.3,1.9-0.8,3.4-1.3c1.5-0.5,3.2-1.2,4.8-2.1c3.1-1.7,5.7-3.6,5.7-3.6
			c0,0-2.8,1.5-6,2.8c-1.6,0.7-3.3,1.1-4.8,1.5c-1.5,0.4-2.8,0.8-3.5,1.1c-1.3,0.6-9.2,3.1-13.3,11.6c-0.9,2.2-1.5,4.4-1.9,6.5
			c-0.9-0.5-2.1-1.5-2.4-3.4C0,26,0.3,16.4,9.1,11c8.8-5.4,18.5-4.3,23.2-5.9C36.9,3.6,38.8,0,38.8,0S34.9,36.4,10,39.1z"/>
	</g>
</g>
</svg>
