<?xml version="1.0" encoding="utf-8"?>
<!-- Generator: Adobe Illustrator 25.1.0, SVG Export Plug-In . SVG Version: 6.00 Build 0)  -->
<svg version="1.1" id="Capa_1" xmlns="http://www.w3.org/2000/svg" xmlns:xlink="http://www.w3.org/1999/xlink" x="0px" y="0px"
	 viewBox="0 0 298 298" style="enable-background:new 0 0 298 298;" xml:space="preserve">
<style type="text/css">
	.st0{fill:#00BAEE;}
</style>
<g>
	<g id="XMLID_1_">
		<g>
			<path class="st0" d="M289.5,140.5c4.1,0,7.5,3.4,7.5,7.5s-3.4,7.5-7.5,7.5h-24.3l10.7,10.7c2.9,2.9,2.9,7.7,0,10.6
				c-1.5,1.5-3.4,2.2-5.3,2.2c-1.9,0-3.8-0.7-5.3-2.2L244,155.5h-34.8l13.9,13.8c1.8,1.3,3.1,3.4,3.2,5.8c0.1,4-2.9,7.4-6.9,7.7
				c0,0-0.1,0-0.1,0c-0.1,0-0.2,0-0.3,0l-23.1,0.8l25.8,25.7h29.9c4.1,0,7.5,3.4,7.5,7.5s-3.4,7.5-7.5,7.5h-14.9l17.4,17.4
				c2.9,2.9,2.9,7.7,0,10.6c-1.5,1.5-3.4,2.2-5.3,2.2s-3.9-0.7-5.4-2.2l-18.1-17.9v15.9c0,4.1-3.4,7.5-7.5,7.5
				c-4.1,0-7.5-3.4-7.5-7.5v-30.9l-24.4-24.6l0.3,23.7c0,4.1-3.3,7.7-7.5,7.7c0,0,0,0,0,0c-2.6,0-4.4-1.2-6.5-3.3
				c-2.2-2.1-15.9-15-15.9-15V244l22,21.8c2.9,2.9,3.1,7.7,0.1,10.6c-1.5,1.5-3.4,2.2-5.3,2.2c-1.9,0-3.9-0.7-5.4-2.2l-11.4-11.2
				v25.3c0,4.1-3.4,7.5-7.5,7.5c-4.1,0-7.5-3.4-7.5-7.5v-24.6l-10.4,10.5c-1.5,1.5-3.2,2.2-5.2,2.2c-1.9,0-3.9-0.7-5.3-2.2
				c-2.9-2.9-3-7.7-0.1-10.6l21-21.1v-35.4c0,0-14.7,15-15.7,15.8c-1.5,1.1-2.9,1.5-4.3,1.5c-4,0.1-7.4-3.2-7.5-7.2l-1-24.4
				l-25.4,25.3v30.2c0,4.1-3.4,7.5-7.5,7.5s-7.5-3.4-7.5-7.5v-15.2l-17,17.2c-1.5,1.5-3.2,2.2-5.1,2.2c-1.9,0-3.8-0.7-5.3-2.2
				c-2.9-2.9-2.9-7.7,0-10.6l17.4-17.4H46.5c-4.1,0-7.5-3.4-7.5-7.5s3.4-7.5,7.5-7.5h30.6l25.1-25.1l-22,0.1c0,0,0,0-0.1,0
				c0,0,0,0-0.1,0c0,0-0.1,0-0.1,0c-1.8,0-3.7-0.7-5.1-2c-3-2.8-3.2-7.6-0.4-10.6l15.3-16.4h-35l-21.3,21.4
				c-1.5,1.5-3.4,2.2-5.3,2.2c-1.9,0-3.8-0.7-5.3-2.2c-2.9-2.9-2.9-7.7,0-10.6l10.7-10.7h-25c-4.1,0-7.5-3.4-7.5-7.5
				s3.4-7.5,7.5-7.5h25.3l-11-11c-2.9-2.9-2.9-7.7,0-10.6s7.7-2.9,10.6,0L55,140.5h34.7L73.9,125c-1.4-1.4-2.4-3.3-2.4-5.1
				c0,0-0.3,0-0.3,0v0c0-0.1,0.3-0.2,0.3-0.3c0-4,3.5-7.3,7.6-7.4l23.1-0.8L77.4,86.5H46.5c-4.1,0-7.5-3.4-7.5-7.5s3.4-7.5,7.5-7.5
				h15.9L44.7,53.8c-2.9-2.9-3-7.7,0-10.6s7.6-2.9,10.5,0l17,17.2V45.5c0-4.1,3.4-7.5,7.5-7.5s7.5,3.4,7.5,7.5v29.9l25.1,24.9
				l0.1-21.2c0-0.6,0.1-1.2,0.2-1.8c0.2-1.4,0.8-2.8,1.9-4c2.8-3,7.5-3.1,10.5-0.3l16.2,15.5V53.1L120,31.8
				c-2.9-2.9-2.8-7.7,0.1-10.6s7.6-2.9,10.5,0l10.5,10.7V7.5c0-4.1,3.4-7.5,7.5-7.5c4.1,0,7.5,3.4,7.5,7.5v24.4L167,21.2
				c2.9-2.9,7.8-2.9,10.7,0c2.9,2.9,2.9,7.7-0.1,10.6l-21.5,21.3v35.2l15.9-15.2c3-2.9,7.9-2.8,10.8,0.2c1.4,1.4,2,3.2,2.1,5
				c0,0,0,0.1,0,0.1l0.4,22.7l24.8-25V45.5c0-4.1,3.4-7.5,7.5-7.5c4.1,0,7.5,3.4,7.5,7.5v15.6l18.1-17.9c2.9-2.9,7.8-2.9,10.8,0
				s2.9,7.7,0,10.6l-17.7,17.7h15.2c4.1,0,7.5,3.4,7.5,7.5s-3.4,7.5-7.5,7.5h-30.2l-24.1,24c0,0,20.5,0,21.5,0
				c1.6,0.2,3.1,0.8,4.3,2c3,2.8,3.2,7.6,0.4,10.6l-16.2,17.4h36.4l21.6-21.6c2.9-2.9,7.7-2.9,10.6,0c2.9,2.9,2.9,7.7,0,10.6l-11,11
				H289.5z M181.4,169.3l19.6-0.7l-13.1-13.1h-20.3L181.4,169.3z M186.8,140.5l14-15l-18.5,0l-15,15H186.8z M170.8,201.3l-0.2-21.3
				l-14.4-14.4v22.2L170.8,201.3z M170.6,115.8l-0.4-20l-14,13.4v20.9L170.6,115.8z M141.2,187.9v-21.6L127,180.6l0.8,21
				L141.2,187.9z M141.2,129.4v-20.2l-13.9-13.3l0,19.5L141.2,129.4z M111.1,140.5h20.3l-14.8-14.8l-19.8,0.7L111.1,140.5z
				 M117.3,169.3l13.8-13.8h-20.9l-13,14L117.3,169.3z"/>
		</g>
		<g>
		</g>
	</g>
</g>
</svg>
